<svg width="143" height="142" viewBox="0 0 143 142" fill="none" xmlns="http://www.w3.org/2000/svg">
<path d="M57.6739 32.3393C62.2141 45.7833 60.4921 58.9046 53.8944 71.2718C53.5248 71.9678 53.0622 72.6007 52.5218 73.15L55.4264 75.0248C56.1653 75.4856 56.0195 76.6918 55.1255 77.2416L53.3309 78.345C53.5273 78.4623 53.7208 78.5904 53.9344 78.7244C58.2964 81.6433 60.6479 86.3018 59.5165 91.8207C58.3851 97.3396 59.9125 100.793 64.5846 103.256C69.2567 105.719 71.4053 109.715 70.4469 115.549C69.5847 120.856 72.9611 123.585 76.4052 126.217C77.1973 126.828 79.1847 126.997 78.0591 128.815C77.1759 130.273 76.1782 128.672 75.4412 128.182C70.503 124.904 67.1211 120.696 68.4408 113.762C69.1892 109.641 66.9706 107.061 63.9803 105.522C58.0543 102.485 55.7177 98.0005 57.5294 90.9742C58.4795 87.2874 56.8223 84.2795 54.2608 81.8826C53.3555 81.039 52.3761 80.2958 51.4051 79.5201L49.3806 80.765C48.4866 81.3148 47.4681 80.8519 47.4783 79.903L47.4941 75.3172C34.9245 76.3929 18.3947 66.99 12.3206 55.2122C10.6282 51.9428 9.57738 48.3294 9.23395 44.5987C8.89052 40.868 9.26192 37.1006 10.3249 33.5329C11.3878 29.9653 13.1193 26.6744 15.4108 23.8669C17.7022 21.0593 20.5041 18.7958 23.6405 17.2182C26.7769 15.6407 30.1802 14.7832 33.6367 14.6997C37.0932 14.6161 40.5283 15.3082 43.7265 16.7327C46.9246 18.1571 49.8167 20.283 52.2212 22.977C54.6257 25.6711 56.4908 28.875 57.6993 32.3877L57.6739 32.3393Z" fill="#E90087"/>
<path d="M89.0708 29.5814C88.9205 43.8953 83.0217 55.5021 72.8043 64.504C72.2327 65.0131 71.5941 65.4264 70.9096 65.7301L73.0085 68.5919C73.5524 69.3415 73.021 70.3803 72.0028 70.5523L69.9665 70.8965C70.1129 71.075 70.2531 71.27 70.4019 71.4802C73.526 75.8868 74.2108 81.1455 71.3406 85.8712C68.4703 90.597 68.7714 94.4124 72.3137 98.5095C75.8559 102.607 76.5839 107.182 73.7777 112.262C71.2391 116.894 73.5028 120.747 75.8567 124.528C76.4031 125.406 78.2055 126.329 76.5571 127.597C75.2568 128.601 74.8407 126.737 74.3193 125.994C70.769 121.026 68.9886 115.795 72.4842 109.814C74.5414 106.297 73.3069 102.989 71.0239 100.416C66.4749 95.2994 65.7584 90.2034 69.7485 84.3297C71.8465 81.2477 71.279 77.8 69.6677 74.5745C69.0939 73.4361 68.4212 72.3546 67.7699 71.2632L65.4648 71.6556C64.4534 71.8191 63.6552 71.0206 63.9684 70.1134L65.4773 65.7906C53.3954 61.9633 40.9947 46.8206 39.171 33.4684C38.6498 29.7569 38.8427 25.9686 39.7375 22.3418C40.6323 18.7151 42.2096 15.3284 44.3703 12.395C46.531 9.46161 49.2282 7.04498 52.2921 5.29715C55.3561 3.54932 58.7205 2.50813 62.1737 2.23916C65.6269 1.97018 69.094 2.47923 72.3569 3.73425C75.6197 4.98926 78.6077 6.96308 81.1328 9.53149C83.6579 12.0999 85.6655 15.2073 87.0291 18.6582C88.3927 22.109 89.0828 25.8285 89.0561 29.5827L89.0708 29.5814Z" fill="#A2BE35"/>
<path d="M130.255 51.5411C123.219 63.6615 112.592 70.2052 99.5421 72.0825C98.8094 72.1908 98.066 72.1813 97.3359 72.0545L97.7482 75.6837C97.8443 76.6319 96.8866 77.2087 95.9418 76.7816L94.039 75.9202C94.0762 76.1556 94.1001 76.4015 94.1338 76.6618C94.6692 82.1938 92.7122 87.0643 87.9877 89.465C83.2632 91.8657 81.6778 95.2876 82.7421 100.801C83.8063 106.313 82.2224 110.622 77.3602 113.349C72.9565 115.856 73.0315 120.425 73.2084 124.988C73.251 126.032 74.3339 127.842 72.323 127.994C70.7391 128.133 71.2819 126.288 71.2183 125.376C70.5845 119.127 71.595 113.658 77.4557 110.548C80.9075 108.71 81.4496 105.191 80.7406 101.7C79.3286 94.7595 81.1794 90.0089 87.4109 87.2653C90.6882 85.8312 91.8615 82.5827 92.0473 78.9103C92.1153 77.615 92.0554 76.3112 92.0283 75.0077L89.8803 74.0367C88.9354 73.6097 88.6476 72.4564 89.3425 71.8766L92.7183 69.0479C84.215 58.9054 80.9721 38.9836 85.8604 26.5546C87.2091 23.0998 89.2023 19.9848 91.7145 17.4055C94.2268 14.8262 97.2039 12.8383 100.459 11.5667C103.714 10.2951 107.176 9.7673 110.628 10.0165C114.08 10.2657 117.447 11.2865 120.517 13.0148C123.588 14.743 126.296 17.1413 128.471 20.059C130.646 22.9767 132.24 26.3507 133.155 29.9689C134.069 33.5871 134.284 37.3713 133.785 41.0838C133.286 44.7962 132.084 48.3566 130.255 51.5411Z" fill="#00ADEF"/>
</svg>
