<svg width="65" height="37" viewBox="0 0 65 37" fill="none" xmlns="http://www.w3.org/2000/svg">
<path d="M50.912 35.2737L61.3627 24.823C63.0597 23.0447 64.0065 20.6811 64.0065 18.223C64.0065 15.7649 63.0597 13.4013 61.3627 11.623L50.912 1.17234C50.162 0.421953 49.1446 0.00025016 48.0836 1.11262e-07C47.0227 -0.000249937 46.0051 0.420974 45.2547 1.17101C44.5043 1.92104 44.0826 2.93844 44.0823 3.9994C44.0821 5.06035 44.5033 6.07795 45.2533 6.82834L52.6667 14.2443L4 14.3057C2.93913 14.3057 1.92172 14.7271 1.17157 15.4772C0.421427 16.2274 0 17.2448 0 18.3057C0 19.3665 0.421427 20.384 1.17157 21.1341C1.92172 21.8842 2.93913 22.3057 4 22.3057L52.616 22.2443L45.2533 29.6177C44.5247 30.3721 44.1215 31.3825 44.1306 32.4313C44.1398 33.4801 44.5604 34.4833 45.3021 35.225C46.0437 35.9666 47.0469 36.3873 48.0957 36.3964C49.1445 36.4055 50.1576 36.0023 50.912 35.2737Z" fill="#4A0C7D"/>
</svg>
