<svg width="65" height="37" viewBox="0 0 65 37" fill="none" xmlns="http://www.w3.org/2000/svg">
<path d="M13.0945 1.12287L2.6438 11.5735C0.946797 13.3518 -1.78027e-05 15.7155 -1.78027e-05 18.1735C-1.78027e-05 20.6316 0.946797 22.9952 2.6438 24.7735L13.0945 35.2242C13.8445 35.9746 14.8619 36.3963 15.9229 36.3965C16.9838 36.3968 18.0014 35.9756 18.7518 35.2255C19.5022 34.4755 19.9239 33.4581 19.9241 32.3971C19.9244 31.3362 19.5032 30.3186 18.7531 29.5682L11.3398 22.1522L60.0065 22.0909C61.0673 22.0909 62.0848 21.6694 62.8349 20.9193C63.585 20.1692 64.0065 19.1517 64.0065 18.0909C64.0065 17.03 63.585 16.0126 62.8349 15.2624C62.0848 14.5123 61.0673 14.0909 60.0065 14.0909L11.3905 14.1522L18.7531 6.77887C19.4818 6.02446 19.8849 5.01405 19.8758 3.96526C19.8667 2.91648 19.446 1.91323 18.7044 1.17159C17.9628 0.429962 16.9595 0.00928553 15.9107 0.000171848C14.8619 -0.00894183 13.8489 0.394241 13.0945 1.12287Z" fill="#4A0C7D"/>
</svg>
